<?xml version="1.0" encoding="utf-8"?>
<!-- Generator: Adobe Illustrator 16.0.0, SVG Export Plug-In . SVG Version: 6.00 Build 0)  -->
<!DOCTYPE svg PUBLIC "-//W3C//DTD SVG 1.1//EN" "http://www.w3.org/Graphics/SVG/1.1/DTD/svg11.dtd">
<svg version="1.1" id="Layer_1" xmlns="http://www.w3.org/2000/svg" xmlns:xlink="http://www.w3.org/1999/xlink" x="0px" y="0px"
	 width="684px" height="146.381px" viewBox="0 0 684 146.381" enable-background="new 0 0 684 146.381" xml:space="preserve">
<polygon points="25.443,3.324 69.48,120.903 113.71,3.324 139.159,3.324 139.159,143.248 121.542,143.248 121.542,26.851 
	121.149,26.851 77.506,143.248 61.647,143.248 18.004,26.851 17.614,26.851 17.614,143.248 0,143.248 0,3.324 "/>
<g>
	<path d="M162.327,45.754c2.806-8.825,7.012-16.621,12.625-23.409c5.611-6.801,12.59-12.222,20.944-16.276
		C204.239,2.017,213.964,0,225.059,0c11.084,0,20.81,2.017,29.158,6.069c8.351,4.054,15.331,9.475,20.941,16.276
		c5.613,6.788,9.823,14.584,12.625,23.409c2.811,8.823,4.212,17.995,4.212,27.53c0,9.539-1.401,18.723-4.212,27.536
		c-2.802,8.82-7.012,16.633-12.625,23.419c-5.61,6.803-12.59,12.183-20.941,16.172c-8.348,3.982-18.074,5.97-29.158,5.97
		c-11.094,0-20.82-1.987-29.163-5.97c-8.354-3.989-15.333-9.369-20.944-16.172c-5.613-6.786-9.819-14.599-12.625-23.419
		c-2.808-8.813-4.206-17.997-4.206-27.536C158.121,63.749,159.519,54.577,162.327,45.754 M179.452,94.167
		c1.829,6.856,4.699,13.021,8.612,18.517c3.916,5.482,8.934,9.886,15.073,13.226c6.132,3.325,13.434,4.995,21.922,4.995
		c8.481,0,15.786-1.67,21.921-4.995c6.129-3.34,11.153-7.743,15.069-13.226c3.914-5.496,6.786-11.66,8.61-18.517
		c1.829-6.859,2.74-13.814,2.74-20.883c0-7.047-0.911-14.009-2.74-20.865c-1.824-6.856-4.696-13.034-8.61-18.52
		c-3.916-5.485-8.94-9.896-15.069-13.224c-6.135-3.344-13.44-5.008-21.921-5.008c-8.488,0-15.79,1.664-21.922,5.008
		c-6.139,3.328-11.157,7.739-15.073,13.224c-3.913,5.486-6.783,11.664-8.612,18.52s-2.741,13.818-2.741,20.865
		C176.71,80.353,177.623,87.308,179.452,94.167"/>
	<path d="M307.631,45.754c2.802-8.825,7.011-16.621,12.625-23.409c5.607-6.801,12.589-12.222,20.943-16.276
		C349.551,2.017,359.268,0,370.354,0c11.095,0,20.81,2.017,29.164,6.069c8.348,4.054,15.333,9.475,20.946,16.276
		c5.616,6.788,9.82,14.584,12.625,23.409c2.8,8.823,4.203,17.995,4.203,27.53c0,9.539-1.403,18.723-4.203,27.536
		c-2.805,8.82-7.009,16.633-12.625,23.419c-5.613,6.803-12.599,12.183-20.946,16.172c-8.354,3.982-18.069,5.97-29.164,5.97
		c-11.086,0-20.803-1.987-29.155-5.97c-8.354-3.989-15.336-9.369-20.943-16.172c-5.614-6.786-9.823-14.599-12.625-23.419
		c-2.809-8.813-4.21-17.997-4.21-27.536C303.421,63.749,304.822,54.577,307.631,45.754 M324.758,94.167
		c1.823,6.856,4.693,13.021,8.609,18.517c3.913,5.482,8.938,9.886,15.073,13.226c6.132,3.325,13.435,4.995,21.914,4.995
		c8.486,0,15.785-1.67,21.923-4.995c6.136-3.34,11.157-7.743,15.079-13.226c3.913-5.496,6.783-11.66,8.609-18.517
		c1.823-6.859,2.74-13.814,2.74-20.883c0-7.047-0.917-14.009-2.74-20.865c-1.826-6.856-4.696-13.034-8.609-18.52
		c-3.922-5.485-8.943-9.896-15.079-13.224c-6.138-3.344-13.437-5.008-21.923-5.008c-8.479,0-15.782,1.664-21.914,5.008
		c-6.135,3.328-11.16,7.739-15.073,13.224c-3.916,5.486-6.786,11.664-8.609,18.52c-1.835,6.856-2.744,13.818-2.744,20.865
		C322.014,80.353,322.923,87.308,324.758,94.167"/>
	<path d="M521.964,3.324c13.309,0,23.714,3.27,31.215,9.8c7.508,6.539,11.26,15.484,11.26,26.852c0,8.491-1.926,15.94-5.783,22.344
		c-3.845,6.401-10.01,10.775-18.491,13.125v0.396c4.046,0.78,7.346,2.088,9.885,3.915c2.544,1.829,4.563,4.019,6.064,6.563
		c1.498,2.544,2.609,5.395,3.327,8.526c0.718,3.134,1.275,6.403,1.664,9.8c0.262,3.393,0.457,6.855,0.59,10.393
		c0.126,3.513,0.454,6.977,0.977,10.384c0.518,3.393,1.274,6.633,2.254,9.694c0.977,3.073,2.444,5.782,4.402,8.133h-20.747
		c-1.305-1.433-2.185-3.398-2.645-5.876c-0.458-2.479-0.75-5.254-0.879-8.326c-0.135-3.07-0.258-6.375-0.393-9.903
		c-0.126-3.521-0.519-6.984-1.17-10.39c-0.527-3.393-1.179-6.621-1.961-9.694c-0.782-3.066-2.02-5.747-3.717-8.039
		c-1.688-2.283-3.916-4.108-6.654-5.482c-2.737-1.374-6.401-2.055-10.957-2.055h-45.414v59.766h-18.593V3.324H521.964z
		 M525.875,66.825c3.926-0.654,7.349-1.931,10.286-3.824c2.929-1.887,5.278-4.444,7.041-7.643c1.759-3.202,2.641-7.344,2.641-12.441
		c0-7.062-1.961-12.812-5.871-17.249c-3.913-4.441-10.243-6.662-18.982-6.662h-46.197v48.797h38.755
		C517.858,67.803,521.964,67.474,525.875,66.825"/>
	<polygon points="683.411,3.324 683.411,19.006 605.514,19.006 605.514,63.489 678.128,63.489 678.128,79.165 605.514,79.165 
		605.514,127.569 684,127.569 684,143.248 586.924,143.248 586.924,3.324 	"/>
</g>
</svg>
